<mxfile host="app.diagrams.net" agent="Mozilla/5.0 (Windows NT 10.0; Win64; x64) AppleWebKit/537.36 (KHTML, like Gecko) Chrome/132.0.0.0 Safari/537.36" version="25.0.3">
  <diagram name="Страница — 1" id="wWW_HzLvjxcMILhNuoFj">
    <mxGraphModel dx="1430" dy="757" grid="1" gridSize="10" guides="1" tooltips="1" connect="1" arrows="1" fold="1" page="1" pageScale="1" pageWidth="827" pageHeight="1169" math="0" shadow="0">
      <root>
        <mxCell id="0" />
        <mxCell id="1" parent="0" />
        <mxCell id="Son0gaxWB0XRTpx_WQBC-8" style="edgeStyle=orthogonalEdgeStyle;rounded=0;orthogonalLoop=1;jettySize=auto;html=1;exitX=0.5;exitY=1;exitDx=0;exitDy=0;entryX=0.5;entryY=0;entryDx=0;entryDy=0;" edge="1" parent="1" source="Son0gaxWB0XRTpx_WQBC-2" target="Son0gaxWB0XRTpx_WQBC-6">
          <mxGeometry relative="1" as="geometry" />
        </mxCell>
        <mxCell id="Son0gaxWB0XRTpx_WQBC-9" style="edgeStyle=orthogonalEdgeStyle;rounded=0;orthogonalLoop=1;jettySize=auto;html=1;exitX=0.5;exitY=1;exitDx=0;exitDy=0;entryX=0.5;entryY=0;entryDx=0;entryDy=0;" edge="1" parent="1" source="Son0gaxWB0XRTpx_WQBC-2" target="Son0gaxWB0XRTpx_WQBC-5">
          <mxGeometry relative="1" as="geometry" />
        </mxCell>
        <mxCell id="Son0gaxWB0XRTpx_WQBC-10" style="edgeStyle=orthogonalEdgeStyle;rounded=0;orthogonalLoop=1;jettySize=auto;html=1;exitX=0.5;exitY=1;exitDx=0;exitDy=0;entryX=0.5;entryY=0;entryDx=0;entryDy=0;" edge="1" parent="1" source="Son0gaxWB0XRTpx_WQBC-2" target="Son0gaxWB0XRTpx_WQBC-3">
          <mxGeometry relative="1" as="geometry" />
        </mxCell>
        <mxCell id="Son0gaxWB0XRTpx_WQBC-11" style="edgeStyle=orthogonalEdgeStyle;rounded=0;orthogonalLoop=1;jettySize=auto;html=1;exitX=0.5;exitY=1;exitDx=0;exitDy=0;entryX=0.5;entryY=0;entryDx=0;entryDy=0;" edge="1" parent="1" source="Son0gaxWB0XRTpx_WQBC-2" target="Son0gaxWB0XRTpx_WQBC-4">
          <mxGeometry relative="1" as="geometry" />
        </mxCell>
        <mxCell id="Son0gaxWB0XRTpx_WQBC-2" value="Генеральный директор" style="rounded=0;whiteSpace=wrap;html=1;" vertex="1" parent="1">
          <mxGeometry x="370" y="70" width="110" height="50" as="geometry" />
        </mxCell>
        <mxCell id="Son0gaxWB0XRTpx_WQBC-28" style="edgeStyle=orthogonalEdgeStyle;rounded=0;orthogonalLoop=1;jettySize=auto;html=1;exitX=0.5;exitY=1;exitDx=0;exitDy=0;entryX=0;entryY=0.5;entryDx=0;entryDy=0;" edge="1" parent="1" source="Son0gaxWB0XRTpx_WQBC-3" target="Son0gaxWB0XRTpx_WQBC-14">
          <mxGeometry relative="1" as="geometry" />
        </mxCell>
        <mxCell id="Son0gaxWB0XRTpx_WQBC-29" style="edgeStyle=orthogonalEdgeStyle;rounded=0;orthogonalLoop=1;jettySize=auto;html=1;exitX=0.5;exitY=1;exitDx=0;exitDy=0;entryX=0;entryY=0.5;entryDx=0;entryDy=0;" edge="1" parent="1" source="Son0gaxWB0XRTpx_WQBC-3" target="Son0gaxWB0XRTpx_WQBC-13">
          <mxGeometry relative="1" as="geometry" />
        </mxCell>
        <mxCell id="Son0gaxWB0XRTpx_WQBC-3" value="Отдел хранения" style="rounded=0;whiteSpace=wrap;html=1;" vertex="1" parent="1">
          <mxGeometry x="460" y="170" width="110" height="50" as="geometry" />
        </mxCell>
        <mxCell id="Son0gaxWB0XRTpx_WQBC-30" style="edgeStyle=orthogonalEdgeStyle;rounded=0;orthogonalLoop=1;jettySize=auto;html=1;exitX=0.5;exitY=1;exitDx=0;exitDy=0;entryX=0;entryY=0.5;entryDx=0;entryDy=0;" edge="1" parent="1" source="Son0gaxWB0XRTpx_WQBC-4" target="Son0gaxWB0XRTpx_WQBC-16">
          <mxGeometry relative="1" as="geometry" />
        </mxCell>
        <mxCell id="Son0gaxWB0XRTpx_WQBC-31" style="edgeStyle=orthogonalEdgeStyle;rounded=0;orthogonalLoop=1;jettySize=auto;html=1;exitX=0.5;exitY=1;exitDx=0;exitDy=0;entryX=0;entryY=0.5;entryDx=0;entryDy=0;" edge="1" parent="1" source="Son0gaxWB0XRTpx_WQBC-4" target="Son0gaxWB0XRTpx_WQBC-15">
          <mxGeometry relative="1" as="geometry" />
        </mxCell>
        <mxCell id="Son0gaxWB0XRTpx_WQBC-4" value="Отдел работы в магазине" style="rounded=0;whiteSpace=wrap;html=1;" vertex="1" parent="1">
          <mxGeometry x="620" y="170" width="110" height="50" as="geometry" />
        </mxCell>
        <mxCell id="Son0gaxWB0XRTpx_WQBC-25" style="edgeStyle=orthogonalEdgeStyle;rounded=0;orthogonalLoop=1;jettySize=auto;html=1;exitX=0.5;exitY=1;exitDx=0;exitDy=0;entryX=0;entryY=0.5;entryDx=0;entryDy=0;" edge="1" parent="1" source="Son0gaxWB0XRTpx_WQBC-5" target="Son0gaxWB0XRTpx_WQBC-19">
          <mxGeometry relative="1" as="geometry" />
        </mxCell>
        <mxCell id="Son0gaxWB0XRTpx_WQBC-26" style="edgeStyle=orthogonalEdgeStyle;rounded=0;orthogonalLoop=1;jettySize=auto;html=1;exitX=0.5;exitY=1;exitDx=0;exitDy=0;entryX=0;entryY=0.5;entryDx=0;entryDy=0;" edge="1" parent="1" source="Son0gaxWB0XRTpx_WQBC-5" target="Son0gaxWB0XRTpx_WQBC-17">
          <mxGeometry relative="1" as="geometry" />
        </mxCell>
        <mxCell id="Son0gaxWB0XRTpx_WQBC-27" style="edgeStyle=orthogonalEdgeStyle;rounded=0;orthogonalLoop=1;jettySize=auto;html=1;exitX=0.5;exitY=1;exitDx=0;exitDy=0;entryX=0;entryY=0.5;entryDx=0;entryDy=0;" edge="1" parent="1" source="Son0gaxWB0XRTpx_WQBC-5" target="Son0gaxWB0XRTpx_WQBC-18">
          <mxGeometry relative="1" as="geometry" />
        </mxCell>
        <mxCell id="Son0gaxWB0XRTpx_WQBC-5" value="Отдел администрации" style="rounded=0;whiteSpace=wrap;html=1;" vertex="1" parent="1">
          <mxGeometry x="300" y="170" width="110" height="50" as="geometry" />
        </mxCell>
        <mxCell id="Son0gaxWB0XRTpx_WQBC-23" style="edgeStyle=orthogonalEdgeStyle;rounded=0;orthogonalLoop=1;jettySize=auto;html=1;exitX=0.5;exitY=1;exitDx=0;exitDy=0;entryX=0;entryY=0.5;entryDx=0;entryDy=0;" edge="1" parent="1" source="Son0gaxWB0XRTpx_WQBC-6" target="Son0gaxWB0XRTpx_WQBC-21">
          <mxGeometry relative="1" as="geometry" />
        </mxCell>
        <mxCell id="Son0gaxWB0XRTpx_WQBC-24" style="edgeStyle=orthogonalEdgeStyle;rounded=0;orthogonalLoop=1;jettySize=auto;html=1;exitX=0.5;exitY=1;exitDx=0;exitDy=0;entryX=0;entryY=0.5;entryDx=0;entryDy=0;" edge="1" parent="1" source="Son0gaxWB0XRTpx_WQBC-6" target="Son0gaxWB0XRTpx_WQBC-20">
          <mxGeometry relative="1" as="geometry" />
        </mxCell>
        <mxCell id="Son0gaxWB0XRTpx_WQBC-6" value="Отдел технической поддержки" style="rounded=0;whiteSpace=wrap;html=1;" vertex="1" parent="1">
          <mxGeometry x="140" y="170" width="110" height="50" as="geometry" />
        </mxCell>
        <mxCell id="Son0gaxWB0XRTpx_WQBC-13" value="Кладовщик" style="rounded=0;whiteSpace=wrap;html=1;" vertex="1" parent="1">
          <mxGeometry x="540" y="240" width="110" height="50" as="geometry" />
        </mxCell>
        <mxCell id="Son0gaxWB0XRTpx_WQBC-14" value="Менеджер" style="rounded=0;whiteSpace=wrap;html=1;" vertex="1" parent="1">
          <mxGeometry x="540" y="310" width="110" height="50" as="geometry" />
        </mxCell>
        <mxCell id="Son0gaxWB0XRTpx_WQBC-15" value="Продавец-консультант" style="rounded=0;whiteSpace=wrap;html=1;" vertex="1" parent="1">
          <mxGeometry x="700" y="240" width="110" height="50" as="geometry" />
        </mxCell>
        <mxCell id="Son0gaxWB0XRTpx_WQBC-16" value="Курьер" style="rounded=0;whiteSpace=wrap;html=1;" vertex="1" parent="1">
          <mxGeometry x="700" y="310" width="110" height="50" as="geometry" />
        </mxCell>
        <mxCell id="Son0gaxWB0XRTpx_WQBC-17" value="Администрация" style="rounded=0;whiteSpace=wrap;html=1;" vertex="1" parent="1">
          <mxGeometry x="380" y="240" width="110" height="50" as="geometry" />
        </mxCell>
        <mxCell id="Son0gaxWB0XRTpx_WQBC-18" value="Бухгалтер" style="rounded=0;whiteSpace=wrap;html=1;" vertex="1" parent="1">
          <mxGeometry x="380" y="310" width="110" height="50" as="geometry" />
        </mxCell>
        <mxCell id="Son0gaxWB0XRTpx_WQBC-19" value="Менеджер по продажам" style="rounded=0;whiteSpace=wrap;html=1;" vertex="1" parent="1">
          <mxGeometry x="380" y="380" width="110" height="50" as="geometry" />
        </mxCell>
        <mxCell id="Son0gaxWB0XRTpx_WQBC-20" value="Системный администратор" style="rounded=0;whiteSpace=wrap;html=1;" vertex="1" parent="1">
          <mxGeometry x="220" y="240" width="110" height="50" as="geometry" />
        </mxCell>
        <mxCell id="Son0gaxWB0XRTpx_WQBC-21" value="Поддержка сайта" style="rounded=0;whiteSpace=wrap;html=1;" vertex="1" parent="1">
          <mxGeometry x="220" y="310" width="110" height="50" as="geometry" />
        </mxCell>
      </root>
    </mxGraphModel>
  </diagram>
</mxfile>
